<svg width="512" height="512" viewBox="0 0 512 512" xmlns="http://www.w3.org/2000/svg">
  <rect width="512" height="512" rx="90" fill="#1a1a1a"/>
  <rect x="6" y="6" width="500" height="500" rx="85" fill="none" stroke="#444" stroke-width="5"/>
  <ellipse cx="256" cy="230" rx="68" ry="78" fill="none" stroke="#e8c96d" stroke-width="14"/>
  <ellipse cx="256" cy="230" rx="34" ry="40" fill="none" stroke="#e8c96d" stroke-width="8"/>
  <rect x="249" y="95" width="14" height="140" rx="5" fill="#e8c96d"/>
  <rect x="232" y="90" width="46" height="22" rx="6" fill="#e8c96d"/>
  <rect x="226" y="82" width="10" height="14" rx="3" fill="#e8c96d"/>
  <rect x="242" y="82" width="10" height="14" rx="3" fill="#e8c96d"/>
  <rect x="260" y="82" width="10" height="14" rx="3" fill="#e8c96d"/>
  <rect x="276" y="82" width="10" height="14" rx="3" fill="#e8c96d"/>
  <line x1="228" y1="100" x2="228" y2="230" stroke="#e8c96d" stroke-width="2.5" opacity="0.6"/>
  <line x1="241" y1="100" x2="241" y2="230" stroke="#e8c96d" stroke-width="2.5" opacity="0.6"/>
  <line x1="256" y1="100" x2="256" y2="230" stroke="#e8c96d" stroke-width="2.5" opacity="0.6"/>
  <line x1="271" y1="100" x2="271" y2="230" stroke="#e8c96d" stroke-width="2.5" opacity="0.6"/>
  <line x1="284" y1="100" x2="284" y2="230" stroke="#e8c96d" stroke-width="2.5" opacity="0.6"/>
  <text x="256" y="366" text-anchor="middle" font-family="Arial, sans-serif" font-size="48" font-weight="700" fill="#ffffff" letter-spacing="5">BOB</text>
  <text x="256" y="422" text-anchor="middle" font-family="Arial, sans-serif" font-size="48" font-weight="700" fill="#e8c96d" letter-spacing="3">DYLAN</text>
</svg>
